<svg id="Layer_1" data-name="Layer 1" xmlns="http://www.w3.org/2000/svg" width="8.17in" height="2.11in" viewBox="0 0 588.57 151.58"><defs><style>.cls-1{fill:#59595b;}.cls-2{fill:#da2127;}.cls-3{fill:#fff;}.cls-4{fill:#dd2227;}</style></defs><path class="cls-1" d="M447.43,56.07c-17.73-2.27-33.36,11.29-32.08,29.77.82,11.86,9.47,22.42,21.16,25.06.85.19,1.83,0,2.53.76h9c1.12-.73,2.45-.65,3.68-1A27.64,27.64,0,0,0,472,81.56C471,68.1,461,57.79,447.43,56.07Zm.37,44.55A16.12,16.12,0,0,1,428,87.24,19.94,19.94,0,0,1,428.93,77a15.88,15.88,0,0,1,15.88-10.56c6.61.42,12.57,5.62,14.31,12.44a29.26,29.26,0,0,1,.6,4.55C459.75,91.69,454.69,98.85,447.8,100.62Z" transform="translate(-10.25 -5.37)"/><path class="cls-2" d="M191.36,60.64c-4.24-3.79-9.37-5.24-15.09-4.9a18.3,18.3,0,0,0-11.74,4.85c-5.93,5.48-7.74,12.4-5.95,20,1.53,6.54,5.56,11.2,12.37,13.06,2,.53,3.94-.06,5.93.42l-11.7,17.56h13c.22-1,1.07-1.58,1.59-2.37,4.28-6.48,8.69-12.88,12.84-19.44,3.45-5.45,6-11.22,4.88-18A18.89,18.89,0,0,0,191.36,60.64ZM177.84,84c-4,.17-8.19-3.66-8.06-8.94.11-4.11,3.46-8.58,7.95-8.3,4.48-.29,8.33,4.08,8.3,8.89A8.64,8.64,0,0,1,177.84,84Z" transform="translate(-10.25 -5.37)"/><path class="cls-2" d="M250.18,56.54c-6.29.07-12.58,0-18.87,0-.92,0-1.25.22-1.23,1.19.07,2.62.06,5.25,0,7.87,0,.94.28,1.23,1.22,1.2,2.16-.06,4.33.1,6.48,0,1.52-.11,1.81.4,1.8,1.84-.05,14.35,0,28.7,0,43.06h11.8v-9.44q0-21.93,0-43.85C251.34,57.59,251.83,56.52,250.18,56.54Z" transform="translate(-10.25 -5.37)"/><path class="cls-2" d="M220.28,56.54c-6.16.07-12.32,0-18.48,0-.92,0-1.25.22-1.23,1.19.06,2.62.06,5.25,0,7.87,0,.94.28,1.23,1.22,1.2,2.16-.06,4.33.1,6.48,0,1.52-.11,1.81.4,1.8,1.84-.06,14.35,0,28.7,0,43.06h11.41v-9q0-22.11,0-44.24C221.43,57.59,221.93,56.52,220.28,56.54Z" transform="translate(-10.25 -5.37)"/><path class="cls-1" d="M598.82,58.52c0-1.26-.42-1.52-1.58-1.5-4.32.06-8.65.09-13,0a2.3,2.3,0,0,0-2.47,1.64c-4,8.6-8.06,17.17-12.11,25.74-.31.66-.65,1.31-1.1,2.2-.41-.85-.7-1.43-1-2q-6.09-13-12.16-25.94c-.42-.9-.73-1.67-2.07-1.64-4.52.11-9,.09-13.57,0-1.27,0-1.51.48-1.51,1.61q0,25.47,0,50.95c0,1.33.45,1.66,1.71,1.62,3-.08,5.9-.09,8.85,0,1.35,0,1.62-.45,1.61-1.69-.06-5.37,0-10.75,0-16.13V77.8a3.56,3.56,0,0,1,1.14,1.71c4,8,8,16,11.81,24.16,1.07,2.28,2.3,3,4.81,3.07,3,.09,4.56-.84,5.85-3.64,3.88-8.42,8.14-16.66,12.25-25l.4.06v2c0,9.7,0,19.41,0,29.11,0,1.57.43,2,2,2,2.88-.12,5.77-.09,8.65,0,1.22,0,1.54-.33,1.54-1.54Q598.76,84.1,598.82,58.52Z" transform="translate(-10.25 -5.37)"/><path class="cls-1" d="M357.94,58.48c0-1.11-.36-1.48-1.47-1.45-2.88.06-5.77.12-8.65,0-1.62-.08-2.09.36-2.07,2,.08,9.25,0,18.49,0,27.74v5c-.55-.69-.75-1-1-1.21q-12.29-16.1-24.54-32.22a2.82,2.82,0,0,0-2.6-1.3c-2.76.08-5.51.07-8.27,0-1.11,0-1.44.32-1.44,1.44q0,25.68,0,51.36c0,1.19.45,1.4,1.5,1.38,2.95-.06,5.9-.11,8.85,0,1.52.06,1.84-.46,1.83-1.9-.06-9.77,0-19.54,0-29.31V77.5c.67.84,1,1.23,1.3,1.63q11.67,15.35,23.31,30.7a3,3,0,0,0,2.77,1.38c3-.1,5.9-.08,8.85,0,1.2,0,1.57-.34,1.57-1.56Q357.9,84.07,357.94,58.48Z" transform="translate(-10.25 -5.37)"/><path class="cls-1" d="M516.68,93.1c-.72-1-.7-1.39.49-1.91a13.9,13.9,0,0,0,8.05-9.58,26.24,26.24,0,0,0,.48-10.91c-1-6.47-4.65-10.49-10.93-12.21a33,33,0,0,0-6-1.11c-8.38-.66-16.78-.19-25.17-.36-1.19,0-1.39.47-1.39,1.51q0,25.57,0,51.16c0,1.26.44,1.54,1.6,1.51,2.88-.07,5.77-.11,8.65,0,1.51.06,1.89-.43,1.87-1.89-.09-4.65,0-9.31-.06-14,0-1.1.3-1.51,1.44-1.46a53.11,53.11,0,0,0,5.5,0,2.3,2.3,0,0,1,2.23,1.19c3.4,5,6.87,9.91,10.29,14.87a2.2,2.2,0,0,0,2,1.24c4.39-.06,8.78,0,13.3,0a2.83,2.83,0,0,0-.9-1.89C524.35,103.88,520.54,98.47,516.68,93.1ZM505.8,83.29c-3.39.18-6.8,0-10.21.12-1.08,0-1.32-.41-1.3-1.39,0-2.15,0-4.32,0-6.48s0-4.45,0-6.67c0-.65-.12-1.37.92-1.34,4.37.16,8.77-.39,13.12.43,3.36.63,4.69,2,5.24,5.42C514.57,79.34,511.79,83,505.8,83.29Z" transform="translate(-10.25 -5.37)"/><path class="cls-1" d="M406.38,57q-16.72.1-33.44,0c-1.45,0-1.9.36-1.89,1.86.07,8.39,0,16.78,0,25.17s0,16.92,0,25.38c0,1.35.34,1.84,1.75,1.79,2.88-.11,5.77-.1,8.65,0,1.35,0,1.79-.32,1.77-1.73-.07-5.9,0-11.8-.07-17.7,0-1.51.42-1.84,1.86-1.82,6.75.08,13.51,0,20.26.06,1.3,0,1.88-.24,1.81-1.69q-.18-3.64,0-7.28c.07-1.44-.48-1.71-1.79-1.7-6.82.06-13.64,0-20.46.05-1.24,0-1.72-.26-1.67-1.61.11-2.68.13-5.38,0-8.06-.08-1.6.35-2.1,2-2.08,7.15.1,14.3,0,21.44.07,1.26,0,1.74-.3,1.68-1.64-.1-2.35-.11-4.72,0-7.08C408.39,57.49,408,57,406.38,57Z" transform="translate(-10.25 -5.37)"/><path class="cls-1" d="M294.74,84.23c0-8.46,0-16.91,0-25.36,0-1.47-.38-1.93-1.87-1.86-2.68.12-5.37.14-8.05,0-1.68-.09-2.24.33-2.22,2.13.11,7.66.05,15.32.05,23,0,9,0,18.08,0,27.12,0,1.56.42,2,2,2,2.68-.12,5.37-.13,8.05,0,1.61.08,2.12-.35,2.1-2C294.7,100.87,294.74,92.55,294.74,84.23Z" transform="translate(-10.25 -5.37)"/><path class="cls-3" d="M508.35,68c-4.35-.82-8.75-.27-13.12-.43-1,0-.92.69-.92,1.34,0,2.22,0,4.45,0,6.67s0,4.33,0,6.48c0,1,.22,1.42,1.3,1.39,3.41-.08,6.82.06,10.21-.12,6-.32,8.77-4,7.79-9.91C513,70,511.71,68.59,508.35,68Z" transform="translate(-10.25 -5.37)"/><path class="cls-2" d="M16.55,38.55c-.46,0-.79,0-1,.57a77.46,77.46,0,0,0-4.71,18.74c-.3,2.41-.38,4.83-.56,7.25a26.84,26.84,0,0,0,.09,3.58c.11,2.09.25,4.17.5,6.26a59.32,59.32,0,0,0,1.17,6.63,70.08,70.08,0,0,0,4.26,12.66c.2.46.38.62.87.62q52,0,104.07,0a.87.87,0,0,0,1-.58,68.35,68.35,0,0,0,2.52-6.36A70.74,70.74,0,0,0,127.9,74c.29-2.42.37-4.84.56-7.25a22.41,22.41,0,0,0-.09-3.66c-.13-1.65-.16-3.31-.33-5a64.92,64.92,0,0,0-1.13-7.2,70.39,70.39,0,0,0-3.6-11.68,1.05,1.05,0,0,0-1.19-.75Zm81.14,6.6q6.48,0,13,0c.61,0,.72.17.72.74q0,10.29,0,20.59c0,6.84,0,13.67,0,20.51,0,.65-.14.83-.8.81q-2.91-.08-5.82,0c-.66,0-.8-.16-.8-.81,0-11.6,0-23.21,0-34.81,0-.7-.15-.92-.88-.9-1.83.06-3.67,0-5.5,0-.44,0-.57-.12-.56-.56,0-1.65,0-3.3,0-5C97,45.26,97.19,45.15,97.69,45.15Zm-32.63,0c4.4,0,8.8,0,13.2,0,.67,0,.55.36.55.74V66.47c0,6.83,0,13.67,0,20.51,0,.64-.14.83-.81.81-1.93-.05-3.87-.05-5.81,0-.65,0-.81-.15-.81-.81,0-11.6,0-23.21,0-34.81,0-.69-.15-.92-.88-.9-1.83.06-3.67,0-5.5,0-.44,0-.57-.11-.57-.56,0-1.68,0-3.35,0-5C64.49,45.26,64.62,45.15,65.06,45.15ZM29.44,51.83a13.59,13.59,0,0,1,7.39-6.72,13.81,13.81,0,0,1,6.3-.62,12.86,12.86,0,0,1,6.17,2.44,14.68,14.68,0,0,1,5.61,8.47c1,4,.22,7.74-1.4,11.4a92.28,92.28,0,0,1-6.39,11.08c-1.95,3.15-3.91,6.31-5.83,9.48a.72.72,0,0,1-.72.42H33.18c1.57-2.51,3.09-4.91,4.58-7.33s3-4.79,4.46-7.25a12.13,12.13,0,0,0-2.07.3,9.45,9.45,0,0,1-7.52-2.25,13.2,13.2,0,0,1-3.57-4.56,16.93,16.93,0,0,1-1.53-5.39A15.26,15.26,0,0,1,29.44,51.83Z" transform="translate(-10.25 -5.37)"/><path class="cls-1" d="M119.23,99.34c-7.15,0-14.3,0-21.46,0a1.62,1.62,0,0,0-1.23.52,43.39,43.39,0,0,1-10.25,7.33,35.63,35.63,0,0,1-23.52,3.57A40.85,40.85,0,0,1,42.31,99.92a1.94,1.94,0,0,0-1.44-.59c-7.18,0-14.36,0-21.54,0h-.92A23.34,23.34,0,0,0,21,103.66a214.46,214.46,0,0,0,14.17,16.83c11,12.26,22.69,24,33.79,36.2.29.31.44.38.77,0C75.55,150.6,81.68,144.83,87.7,139c7.73-7.54,15.42-15.12,22.19-23.56a72.16,72.16,0,0,0,9.83-15.28C120.08,99.35,120.07,99.34,119.23,99.34Z" transform="translate(-10.25 -5.37)"/><path class="cls-1" d="M41.08,34.13a1.56,1.56,0,0,0,1.14-.55c9-8.32,19.64-12.12,31.9-10.7A38.56,38.56,0,0,1,96.58,33.63a1.65,1.65,0,0,0,1.25.5c7.18,0,14.36,0,21.54,0a1.37,1.37,0,0,0,.75-.06c-8.6-14.33-26.32-28-49-28.66C46.62,4.68,27.76,19,18.59,34.12h.48C26.41,34.12,33.74,34.11,41.08,34.13Z" transform="translate(-10.25 -5.37)"/><path class="cls-4" d="M40.06,66.67a6.42,6.42,0,0,0,6.77-3.08A8.24,8.24,0,0,0,45.92,54a6,6,0,0,0-9.46.37,8.27,8.27,0,0,0-1.52,5.25,7.17,7.17,0,0,0,.18,1.63A6.57,6.57,0,0,0,40.06,66.67Z" transform="translate(-10.25 -5.37)"/></svg>