<?xml version="1.0" encoding="utf-8"?>
<!-- Generator: Adobe Illustrator 21.1.0, SVG Export Plug-In . SVG Version: 6.00 Build 0)  -->
<!DOCTYPE svg PUBLIC "-//W3C//DTD SVG 1.1//EN" "http://www.w3.org/Graphics/SVG/1.1/DTD/svg11.dtd">
<svg version="1.1" id="Layer_1" xmlns="http://www.w3.org/2000/svg" xmlns:xlink="http://www.w3.org/1999/xlink" x="0px" y="0px"
	 width="400px" height="182.6px" viewBox="0 0 400 182.6" style="enable-background:new 0 0 400 182.6;" xml:space="preserve">
<style type="text/css">
	.st0{fill:#FFFFFF;}
</style>
<g>
	<path class="st0" d="M215.6,52.4l0.9-0.9l0.4,1.2c0,0.2,4.7,16.3,21.9,28c6.5,3.2,12.8,4.9,18.6,4.9c5.7,0,9.6-1.6,11.3-2.5
		c-0.8-0.5-2.1-1.3-3.7-2.3c-19.9-9.6-33.2-27.9-39.6-54.1c-0.3-0.1-0.6-0.1-0.9-0.1c-2,0-4.1,1.4-6.3,4.2
		c-5.9,7.6-21.3,23.6-37.1,35.6c-5.4,3.5-10.6,5.5-14.5,5.5c-1.5,0-2.9-0.3-3.9-1c-1.5-0.9-2.7-2.1-3.8-3.5c-2.7,2.3-4.3,5.6-4.3,9
		c0,8.2,8.2,9.4,13,9.4c0.6,0,1.2,0,1.9-0.1c0.3,0,0.5,0,0.8,0c1.2,0,2.5-0.3,4.1-0.7C188.2,80.7,215.4,52.7,215.6,52.4z"/>
	<path class="st0" d="M253.4,0c-4.8,0-13.2,2-15,15.5c0,42.6,39.5,61.6,56.5,67.8c4.9,1.8,9.5,2.7,13.6,2.7
		c10.4,0,15.3-5.6,16.8-7.8c-53.7-10.5-71.2-47.6-69.5-61.4l0,0v-0.2c0-4.4,3.8-7.9,8.4-7.9c1.9,0,3.7,0.6,5.2,1.7
		c0-1.7-0.8-3.1-1.6-4.2C264.8,2.6,258.9,0,253.4,0z"/>
</g>
<g>
	<polygon class="st0" points="0,155.6 10.2,155.6 10.2,121.9 41.3,121.9 41.3,112.6 10.2,112.6 10.2,90 45.2,90 45.2,80.7 0,80.7 	
		"/>
	<rect x="56.1" y="80.7" class="st0" width="9.8" height="10.5"/>
	<rect x="56.4" y="102" class="st0" width="9.8" height="53.6"/>
	<path class="st0" d="M83.6,165.7c0,2.9-0.7,5-2.1,6.3s-3.8,2-7.1,2c-1.1,0-2.3-0.1-3.3-0.2c-1.1-0.2-2.2-0.4-3.2-0.7l-0.8-0.2v8.5
		l0.4,0.2c0.7,0.3,1.8,0.5,3.3,0.8c1.5,0.2,3,0.4,4.6,0.4c6.1,0,10.7-1.4,13.6-4.2s4.3-6.7,4.3-11.7V102h-9.8L83.6,165.7L83.6,165.7
		z"/>
	<rect x="83.4" y="80.7" class="st0" width="9.8" height="10.5"/>
	<path class="st0" d="M150.4,108.5c-2.2-2.5-4.9-4.4-8-5.8c-6.2-2.7-14.9-2.7-21.2,0c-3.1,1.3-5.8,3.3-8,5.8s-3.9,5.5-5.1,8.9
		s-1.8,7.3-1.8,11.5c0,4.2,0.6,8,1.7,11.4c1.2,3.4,2.9,6.4,5.1,8.9s4.9,4.4,8,5.7c3.1,1.4,6.7,2,10.7,2c3.9,0,7.4-0.7,10.5-2
		s5.8-3.3,8-5.7c2.2-2.5,3.9-5.5,5.1-8.9c1.2-3.4,1.8-7.3,1.8-11.4c0-4.2-0.6-8.1-1.7-11.5C154.2,113.9,152.5,110.9,150.4,108.5z
		 M146.9,128.9c0,3.1-0.4,5.9-1.2,8.4c-0.8,2.4-1.8,4.5-3.2,6.2s-3,2.9-4.8,3.8c-3.7,1.7-8.5,1.7-12.2,0c-1.8-0.9-3.5-2.1-4.8-3.8
		c-1.4-1.7-2.5-3.7-3.2-6.2c-0.8-2.4-1.2-5.3-1.2-8.4c0-3.2,0.4-6,1.2-8.4c0.8-2.4,1.8-4.5,3.2-6.2c1.3-1.7,3-2.9,4.8-3.8
		s3.9-1.3,6.1-1.3c2.2,0,4.3,0.4,6.1,1.3c1.8,0.8,3.5,2.1,4.8,3.8c1.4,1.7,2.4,3.7,3.2,6.2C146.6,122.9,146.9,125.7,146.9,128.9z"/>
	<path class="st0" d="M220.9,135.1c-0.9,3.1-1.8,6.1-2.4,8.8c-0.8-3-1.7-6.3-2.8-9.9l-9.7-31.9h-9.5l-8.9,31.9c-1,3.9-1.9,7-2.4,9.5
		c-0.6-2.3-1.4-5.1-2.4-8.3l-9.9-33.1H163l17.4,53.6h9.6l8.6-31.7c0.9-3.2,1.8-6.9,2.6-10.8c1,3.9,1.9,7.6,2.8,10.8l8.8,31.7h9.9
		l17.9-53.6h-9.9L220.9,135.1z"/>
	<path class="st0" d="M288.1,111.3c-1.5-3.2-4-5.8-7.5-7.7c-4.4-2.5-10.9-3.3-17.7-2.7c-1.5,0.1-2.9,0.4-4.3,0.6
		c-1.3,0.3-2.6,0.6-3.8,1s-2.3,0.8-3.2,1.3l-0.3,0.2v8.5l0.8-0.3c2.3-0.9,4.6-1.6,6.9-2c5.3-1.1,12-1,15.5,0.9
		c2,1.1,3.4,2.5,4.3,4.1c0.4,0.8,0.7,1.7,0.9,2.7c0.2,1.1,0.3,2.3,0.3,3.7v2.8c-1.7-0.6-3.6-1.1-5.7-1.5c-2.3-0.4-4.9-0.7-7.7-0.7
		c-2.9,0-5.6,0.4-8,1.2c-2.4,0.8-4.5,1.9-6.3,3.4s-3.1,3.3-4.1,5.4c-1,2.1-1.5,4.6-1.5,7.3s0.4,5.2,1.3,7.3c0.9,2.2,2.1,4.1,3.7,5.5
		c1.6,1.5,3.5,2.7,5.7,3.4c2.2,0.8,4.6,1.2,7.2,1.2c1.9,0,3.7-0.2,5.4-0.6c1.7-0.4,3.3-1,4.7-1.7c1.4-0.7,2.7-1.5,3.8-2.4
		c0.8-0.6,1.5-1.3,2-1.9l0.8,5.2h8.3v-35.6c0-1.7-0.1-3.3-0.4-4.8C289.1,113.8,288.7,112.5,288.1,111.3z M280.1,142.1
		c-0.4,0.4-1,1-1.9,1.7c-0.8,0.7-1.8,1.4-3,2.1c-1.2,0.7-2.6,1.3-4.1,1.8c-2.6,0.9-6,1.1-8.6,0.2c-1.1-0.3-2.1-0.9-3-1.6
		c-0.8-0.7-1.5-1.6-1.9-2.8c-0.5-1.1-0.7-2.5-0.7-4c0-3,0.9-5.2,2.8-6.6c1.9-1.5,4.7-2.2,8.1-2.2c2.5,0,4.9,0.3,7,0.7
		c1.9,0.4,3.6,0.7,5.1,1.1L280.1,142.1z"/>
	<path class="st0" d="M327.8,131.5c-2,5.5-3.6,10.1-4.6,13.4c-1.3-3.8-2.8-8.3-4.7-13.4L308,102h-9.9l20.3,53.6h9.7l20.3-53.6h-9.9
		L327.8,131.5z"/>
	<path class="st0" d="M398.4,115.2c-1.1-3.4-2.7-6.2-4.6-8.3c-1.9-2.2-4.2-3.8-6.9-4.8c-5.3-2.1-12-2-17.6,0.3
		c-2.9,1.2-5.6,3-7.8,5.4c-2.2,2.4-4.1,5.4-5.4,9s-2,7.8-2,12.6c0,4.9,0.7,9.2,2.1,12.7s3.4,6.4,5.8,8.6c2.5,2.2,5.4,3.8,8.8,4.8
		c3.3,1,6.9,1.5,10.7,1.5c3.2,0,6.2-0.3,9-0.8s5.2-1.3,7.1-2.2l0.4-0.2v-8.4l-0.8,0.3c-2.2,0.8-4.6,1.5-6.9,1.9
		c-4.5,0.9-10.4,1-15-0.3c-2.3-0.6-4.3-1.7-5.9-3c-1.6-1.4-3-3.2-4-5.4c-0.9-2.1-1.4-4.7-1.4-7.6h36.1v-0.6c0-1.1,0-1.8,0-2.1v-1.1
		C400,122.7,399.4,118.6,398.4,115.2z M364.3,122.6c0.2-1.7,0.7-3.3,1.3-4.8c0.7-1.7,1.7-3.2,3-4.5c1.2-1.3,2.6-2.3,4.2-3
		c3.2-1.5,7.4-1.4,10.3,0c1.4,0.7,2.7,1.7,3.6,2.9c1,1.3,1.8,2.8,2.3,4.5c0.5,1.5,0.7,3.2,0.8,4.9H364.3z"/>
</g>
</svg>
